# xmcd CD database file
#
# Track frame offsets:
#	150
#	16401
#	36863
#	58537
#	76736
#	92855
#	106822
#	124586
#	139133
#	157613
#	177122
#	187980
#	205371
#	221523
#	236106
#	256680
#	269153
#
# Disc length: 3831 seconds
#
# Revision: 0
# Processed by: cddbd v1.5.2PL0 Copyright (c) Steve Scherf et al.
# Submitted via: CDex 1.51
#
DISCID=e10ef511
DTITLE=Varios Artistas - Lo Mejor De Toma Uno - CD 1
DYEAR=2012
DGENRE=Country
TTITLE0=Alison Krauss and Union Station - Paper Airplane
TTITLE1=Eilen Jewell - Santa Fe
TTITLE2=James Taylor - Seminole Wind
TTITLE3=Jamey Johnson - For The Good Times
TTITLE4=Zac Brown Band - Keep Me In Mind
TTITLE5=Robert Earl Keen - I Gotta Go
TTITLE6=Martina McBride - Teenage Daughters
TTITLE7=Ashton Shepherd - Where Country Grows
TTITLE8=Vince Gill - Guitar Slinger
TTITLE9=Hayes Carll - KMAG YOYO
TTITLE10=The Secret Sisters - I've Got A Feeling
TTITLE11=Lucinda Williams - Buttercup
TTITLE12=The Band Perry - You Lie
TTITLE13=Shania Twain - Today Is Your Day
TTITLE14=Sugarland - Tonight
TTITLE15=Gregg Allman - Little By Little
TTITLE16=Los Widow Makers - Thunder In Your Eyes
EXTD=YEAR: 2012
EXTT0=
EXTT1=
EXTT2=
EXTT3=
EXTT4=
EXTT5=
EXTT6=
EXTT7=
EXTT8=
EXTT9=
EXTT10=
EXTT11=
EXTT12=
EXTT13=
EXTT14=
EXTT15=
EXTT16=
PLAYORDER=
